# xmcd
#
# Track frame offsets:
#	150
#	13709
#	32757
#	50247
#	65102
#	81264
#	99114
#	112158
#	130175
#	145657
#	162184
#	177279
#	194897
#	209250
#	224056
#	242366
#	263490
#	277070
#	294589
#	316878
#
# Disc length: 4429 seconds
#
# Revision: 3
# Processed by: cddbd v1.5.2PL0 Copyright (c) Steve Scherf et al.
# Submitted via: audiograbber 1.83.01
#
DISCID=36114b14
DTITLE=Various Artist - Prime Cuts HP201119
DYEAR=2011
DGENRE=Pop
TTITLE0=Mat Kearney - Hey Mama
TTITLE1=Rihanna - California King Bed
TTITLE2=Katy Perry - Last Friday (T.G.I.F.)
TTITLE3=David Guetta Feat. Flo Rida and Nicki Minaj - Where Them Girls At (Clean 
TTITLE3=Version)
TTITLE4=Jazmine Sullivan - Excuse Me
TTITLE5=Estelle Feat. Rick Ross - Break My Heart
TTITLE6=Jadakiss Feat. Emanny - Hold You Down
TTITLE7=Meek Mill Feat. Rick Ross - Tupac Back (Radio Edit)
TTITLE8=Zac Brown Band Feat. Jimmy Buffett - Knee Deep
TTITLE9=Lady Antebellum - Just A Kiss
TTITLE10=Joe Nichols - Take It Off
TTITLE11=Whitesnake - Love Will Set You Free (Album Version)
TTITLE12=Taking Back Sunday - Faith (When I Let You Down)
TTITLE13=Joy Formidable - Whirring  (Radio Edit)
TTITLE14=Kings Of Leon - Back Down South
TTITLE15=Def Leppard - Undefeated
TTITLE16=Owl City - Deer In The Headlights (Album Version)
TTITLE17=Jessie J Feat. B.O.B. - Price Tag (Jason Nevins Radio Edit)
TTITLE18=Katy Perry - Last Friday (T.G.I.F.) (Almighty Mixshow Edit)
TTITLE19=Anthem Lights - Can't Get Over You (Album Version)
EXTD=
EXTT0=
EXTT1=
EXTT2=
EXTT3=
EXTT4=
EXTT5=
EXTT6=
EXTT7=
EXTT8=
EXTT9=
EXTT10=
EXTT11=
EXTT12=
EXTT13=
EXTT14=
EXTT15=
EXTT16=
EXTT17=
EXTT18=
EXTT19=
PLAYORDER=
